<svg width="29" height="29" viewBox="0 0 29 29" fill="none" xmlns="http://www.w3.org/2000/svg">
<rect x="28" y="1" width="27" height="27" rx="6" transform="rotate(90 28 1)" fill="white" stroke="#204B45" stroke-width="2"/>
<path opacity="0.3" d="M11.2732 5L17.7268 5C18.5969 5 19.0519 6.03432 18.4639 6.67573L15.2372 10.1958C14.8408 10.6282 14.1592 10.6282 13.7628 10.1958L10.5361 6.67572C9.94813 6.03432 10.4031 5 11.2732 5Z" fill="#204B45"/>
<path opacity="0.3" d="M11.2732 24L17.7268 24C18.5969 24 19.0519 22.9657 18.4639 22.3243L15.2372 18.8042C14.8408 18.3718 14.1592 18.3718 13.7628 18.8042L10.5361 22.3243C9.94813 22.9657 10.4031 24 11.2732 24Z" fill="#204B45"/>
</svg>
